<?xml version="1.0" standalone="no"?><!DOCTYPE svg PUBLIC "-//W3C//DTD SVG 1.1//EN" "http://www.w3.org/Graphics/SVG/1.1/DTD/svg11.dtd"><svg t="1689216231339" class="icon" viewBox="0 0 1024 1024" version="1.1" xmlns="http://www.w3.org/2000/svg" p-id="2046" xmlns:xlink="http://www.w3.org/1999/xlink" width="200" height="200"><path d="M687.99146667 342.08426667c0-42.46186667-12.15146667-72.8064-42.46186667-103.15093334s-60.68906667-42.46186667-103.15093333-42.46186666c-36.42026667 0-72.8064 12.15146667-103.15093334 42.46186666-24.2688 30.34453333-42.46186667 60.68906667-42.46186666 103.15093334h291.25973333z" fill="#1296db" p-id="2047"></path><path d="M894.29333333 578.7648c-6.07573333-6.07573333-12.15146667-6.07573333-18.19306666-6.07573333h-103.15093334v-133.49546667l78.88213334-78.88213333c6.07573333-6.07573333 6.07573333-12.15146667 6.07573333-18.19306667s0-12.15146667-6.07573333-18.19306667c-6.07573333-6.07573333-12.15146667-6.07573333-18.19306667-6.07573333s-12.15146667 0-18.19306667 6.07573333l-78.88213333 78.88213334h-382.29333333L251.11893333 299.65653333c6.07573333-6.07573333 6.07573333-12.15146667 12.15146667-12.15146666 30.34453333-36.42026667 30.34453333-42.46186667 30.34453333-42.46186667v-18.2272c18.19306667-18.19306667 24.2688-30.34453333 30.34453334-30.34453333 12.15146667-6.07573333 24.2688 0 30.34453333 0s6.07573333 6.07573333 12.15146667 12.15146666l-6.07573334 6.07573334v6.07573333l30.34453334 24.2688h6.07573333l42.46186667-48.5376v-6.07573333l-36.42026667-24.2688h-6.07573333v6.07573333h-12.15146667c-12.15146667-6.07573333-6.07573333-18.19306667-12.15146667-24.2688s-12.15146667-18.19306667-18.19306666-18.19306667c-6.07573333-6.07573333-30.34453333-24.2688-66.7648-36.42026666-42.46186667-12.15146667-72.8064 0-78.88213334 12.15146666-6.07573333 0-12.15146667 12.15146667 0 12.15146667 6.07573333 0 42.46186667-6.07573333 54.61333334 0 12.15146667 12.15146667 24.2688 24.2688 30.34453333 42.46186667 0 18.19306667 0 30.34453333-24.2688 54.61333333l-6.07573333-6.07573333h-6.07573334s-6.07573333 6.07573333-30.34453333 42.46186666c-54.61333333 48.5376-109.22666667 103.15093333-109.22666667 103.15093334v6.07573333l48.5376 42.46186667h6.07573334s18.19306667-24.2688 42.46186666-60.68906667l97.0752 97.0752v133.49546667H208.5888c-6.07573333 0-12.15146667 0-18.19306667 6.07573333s-6.07573333 12.15146667-6.07573333 18.19306667c0 6.07573333 0 12.15146667 6.07573333 18.19306666 6.07573333 12.15146667 12.15146667 18.19306667 18.19306667 18.19306667h103.15093333c0 48.5376 6.07573333 91.0336 24.2688 121.37813333l-91.0336 103.15093334c-6.07573333 6.07573333-6.07573333 12.15146667-6.07573333 18.19306666s6.07573333 12.15146667 12.15146667 18.19306667c6.07573333 6.07573333 12.15146667 6.07573333 18.19306666 6.07573333s18.19306667-6.07573333 24.2688-12.15146666l84.95786667-91.0336 6.07573333 6.07573333c0 12.15146667 6.07573333 12.15146667 12.15146667 18.19306667s18.19306667 12.15146667 30.34453333 18.19306666c12.15146667 6.07573333 24.2688 12.15146667 36.42026667 12.15146667 18.19306667 6.07573333 30.34453333 6.07573333 48.5376 6.07573333V457.35253333h60.68906667V863.91466667c12.15146667 0 30.34453333 0 42.46186666-6.07573334s24.2688-6.07573333 36.42026667-12.15146666 18.19306667-12.15146667 30.34453333-18.19306667 18.19306667-12.15146667 18.19306667-12.15146667l6.07573333-6.07573333 91.0336 91.0336c6.07573333 6.07573333 12.15146667 6.07573333 18.19306667 6.07573333s12.15146667 0 18.19306667-6.07573333c6.07573333-6.07573333 6.07573333-12.15146667 6.07573333-18.19306667s0-12.15146667-6.07573333-18.19306666l-91.0336-97.0752c18.19306667-36.42026667 30.34453333-78.88213333 30.34453333-133.49546667h103.15093333c6.07573333 0 12.15146667 0 18.19306667-6.07573333s6.07573333-12.15146667 6.07573333-18.19306667c6.07573333-18.19306667 0-24.2688-6.07573333-30.34453333z" fill="#1296db" p-id="2048"></path></svg>